<?xml version="1.0" standalone="no"?>
<!DOCTYPE svg PUBLIC "-//W3C//DTD SVG 20010904//EN"
 "http://www.w3.org/TR/2001/REC-SVG-20010904/DTD/svg10.dtd">
<svg version="1.0" xmlns="http://www.w3.org/2000/svg"
 width="500.000000pt" height="500.000000pt" viewBox="0 0 500.000000 500.000000"
 preserveAspectRatio="xMidYMid meet">
<metadata>
Created by potrace 1.14, written by Peter Selinger 2001-2017
</metadata>
<g transform="translate(0.000000,500.000000) scale(0.100000,-0.100000)"
fill="#000000" stroke="none">
<path d="M1575 4650 c-333 -47 -560 -238 -664 -559 -105 -325 -68 -804 105
-1334 90 -275 203 -509 361 -742 156 -232 220 -313 275 -349 49 -32 77 5 122
165 53 191 84 835 56 1174 -18 213 -70 541 -96 610 -6 15 -4 17 17 11 95 -27
266 -67 329 -77 l75 -13 115 -115 c279 -282 656 -532 1043 -692 67 -28 127
-53 133 -55 20 -9 -4 311 -36 461 -117 566 -521 1079 -1064 1352 -119 60 -298
123 -417 147 -94 19 -275 28 -354 16z m179 -327 c25 -124 69 -250 129 -372 28
-58 53 -110 55 -114 10 -21 -265 71 -396 133 -98 47 -234 130 -297 183 l-29
25 38 47 c95 115 246 182 417 184 l66 1 17 -87z m395 -21 c466 -201 867 -662
996 -1145 l24 -88 -77 41 c-95 51 -281 173 -382 250 -267 204 -472 441 -596
690 -42 85 -104 255 -104 287 0 20 26 13 139 -35z m-944 -428 c33 -23 100 -64
149 -91 l90 -48 28 -100 c110 -385 144 -797 111 -1357 -3 -60 -9 -108 -14
-108 -13 0 -105 160 -174 301 -112 233 -195 485 -249 759 -37 186 -50 333 -43
499 7 164 14 204 31 194 6 -4 38 -26 71 -49z"/>
<path d="M3588 4505 c-3 -3 -3 -506 -1 -1118 3 -612 1 -1129 -4 -1150 l-8 -38
-795 612 -795 611 -7 -53 c-25 -198 -37 -1601 -18 -2069 12 -311 32 -734 34
-737 3 -3 329 17 333 21 2 2 -4 149 -13 327 -18 365 -30 1510 -17 1710 l8 127
805 -620 805 -619 8 608 c8 634 2 2249 -9 2341 l-7 52 -157 0 c-86 0 -159 -2
-162 -5z"/>
<path d="M2425 2428 c-40 -183 -58 -564 -35 -770 65 -591 325 -1012 754 -1223
138 -69 215 -89 331 -89 77 0 99 4 148 27 81 37 126 76 164 139 107 178 78
464 -78 769 -210 411 -599 784 -1137 1093 -74 42 -136 76 -138 76 -2 0 -6 -10
-9 -22z m310 -464 c50 -34 117 -84 150 -111 l60 -49 6 -219 c4 -128 13 -262
23 -320 36 -220 105 -413 190 -538 l26 -39 -38 22 c-51 29 -158 122 -211 183
-208 242 -321 609 -321 1045 0 80 3 102 13 96 6 -4 53 -35 102 -70z m667 -658
c107 -161 176 -319 197 -454 11 -73 6 -168 -10 -178 -17 -10 -75 30 -141 97
-136 138 -225 390 -245 694 l-6 100 72 -85 c40 -47 100 -125 133 -174z"/>
</g>
</svg>
